<svg width="29" height="16" viewBox="0 0 29 16" fill="none" xmlns="http://www.w3.org/2000/svg">
<g id="Layer_1" clip-path="url(#clip0_107_1535)">
<path id="Vector" d="M28.8157 7.50096C28.5545 7.196 22.3483 0 14.4985 0C6.64859 0 0.445492 7.196 0.184342 7.50096C-0.0614472 7.78745 -0.0614472 8.21255 0.184342 8.49904C0.445492 8.804 6.65166 16 14.5015 16C22.3514 16 28.5576 8.804 28.8187 8.49904C29.0645 8.21255 29.0645 7.78745 28.8187 7.50096H28.8157ZM14.4985 14.3612C11.0021 14.3612 8.15711 11.5087 8.15711 8.00308C8.15711 4.4975 11.0021 1.64189 14.4985 1.64189C17.9948 1.64189 20.8398 4.49442 20.8398 8C20.8398 11.5056 17.9948 14.3581 14.4985 14.3581V14.3612ZM1.81269 8C2.77434 6.99884 5.16464 4.71313 8.28923 3.14517C7.24462 4.48518 6.62093 6.1702 6.62093 8C6.62093 9.8298 7.24462 11.5117 8.28923 12.8548C5.16156 11.2899 2.77434 9.00115 1.81269 8ZM20.7077 12.8548C21.7523 11.5148 22.376 9.8298 22.376 8C22.376 6.1702 21.7523 4.48826 20.7077 3.14517C23.8354 4.71005 26.2226 6.99884 27.1842 8C26.2226 9.00115 23.8323 11.2869 20.7077 12.8548Z" fill="#00604D"/>
<path id="Vector_2" d="M14.4984 10.8157C16.0493 10.8157 17.3066 9.55512 17.3066 8.00013C17.3066 6.44514 16.0493 5.18457 14.4984 5.18457C12.9476 5.18457 11.6903 6.44514 11.6903 8.00013C11.6903 9.55512 12.9476 10.8157 14.4984 10.8157Z" fill="#00604D"/>
</g>
<defs>
<clipPath id="clip0_107_1535">
<rect width="29" height="16" fill="white"/>
</clipPath>
</defs>
</svg>
