<svg width="245" height="77" viewBox="0 0 245 77" fill="none" xmlns="http://www.w3.org/2000/svg">
<g id="Group">
<path id="Vector" d="M67.2036 67.095C65.3779 65.584 66.0761 64.7084 67.6959 62.9856C68.3655 62.2817 68.9607 61.8638 69.4529 61.8638C69.8765 61.8638 70.2599 62.1786 70.8208 62.8483C72.4005 64.8171 74.9645 67.0664 77.6373 67.0664C80.3101 67.0664 81.9928 65.5211 81.9928 63.4149C81.9928 61.1656 80.3445 60.0095 75.8116 59.1968C69.5216 58.075 66.8545 55.7513 66.8545 51.5389C66.8545 47.0747 71.2443 43.7036 76.9391 43.7036C80.1041 43.7036 83.1604 44.7567 85.4783 46.5481C87.1324 47.8473 87.0237 48.6543 85.4783 50.0966C84.6027 50.9379 83.9674 51.3615 83.4408 51.3615C82.983 51.3615 82.4907 51.1154 81.8955 50.3771C80.0354 48.0934 78.1353 46.9717 76.2752 46.9717C73.6768 46.9717 71.9884 48.4826 71.9884 50.3771C71.9884 52.4832 73.6768 53.6794 77.8205 54.4177C84.4596 55.6139 87.1324 57.7888 87.1324 62.1157C87.1324 67.1064 82.1416 70.3001 76.8361 70.3001C73.2189 70.3001 69.4243 69.0352 67.2094 67.1007" fill="white"/>
<path id="Vector_2" d="M88.3516 60.3871C88.3516 54.4463 92.5697 50.2339 98.5392 50.2339C103.988 50.2339 108.166 54.6237 108.166 60.2841C108.166 65.9445 103.982 70.2256 98.5048 70.2256C93.0276 70.2256 88.3516 65.9045 88.3516 60.3871ZM99.0657 66.7458C101.561 66.7458 103.318 64.6396 103.318 61.7207C103.318 57.577 100.645 53.708 97.4517 53.708C94.9563 53.708 93.1649 55.7798 93.1649 58.6987C93.1649 62.8768 95.9064 66.7458 99.0657 66.7458Z" fill="white"/>
<path id="Vector_3" d="M109.505 59.9981C109.505 54.1316 114.387 50.2283 119.481 50.2283C122.148 50.2283 124.752 51.2127 126.681 53.1472C127.877 54.3434 127.843 55.2534 126.749 56.3065C125.519 57.5027 124.924 58.1322 124.363 58.0979C123.871 58.0979 123.556 57.8175 123.275 57.3252C121.799 54.7612 120.356 53.565 118.393 53.565C116.144 53.565 114.387 55.7456 114.387 58.5558C114.387 62.8082 117.34 66.2136 120.746 66.2136C122.468 66.2136 123.836 65.441 125.21 64.3535C126.017 63.6839 126.509 63.7583 127.213 64.5996C127.671 65.1605 127.636 65.6184 127.11 66.4254C125.565 68.6747 122.611 70.22 119.624 70.22C114.003 70.22 109.505 65.6871 109.505 59.9923" fill="white"/>
<path id="Vector_4" d="M129.422 50.7547H133.64C134.482 50.7547 135.008 51.2812 135.008 52.5804V64.7712C134.974 66.2135 135.22 66.7744 136.204 67.1979C137.046 67.5871 137.326 67.9705 137.326 68.4971C137.326 69.2697 136.731 69.6933 135.884 69.6933H129.525C128.718 69.6933 128.157 69.2697 128.157 68.4971C128.157 67.9705 128.438 67.5813 129.211 67.2322C130.126 66.8087 130.372 66.2478 130.332 64.8055V55.6367C130.367 54.2345 130.086 53.6335 129.033 53.1756C128.295 52.8265 128.083 52.4373 128.083 51.9108C128.083 51.1381 128.61 50.7146 129.417 50.7489M128.924 47.624C128.924 45.9356 130.224 44.499 132.015 44.499C133.806 44.499 135.14 45.9413 135.14 47.624C135.14 48.5054 134.682 48.9232 133.875 48.9232H130.183C129.411 48.9232 128.919 48.4653 128.919 47.624" fill="white"/>
<path id="Vector_5" d="M137.012 60.4902C136.8 54.3433 142.037 50.3369 146.781 50.3369C151.526 50.3369 155.458 53.8167 155.458 57.7143C155.458 59.1223 154.685 60.101 153.42 60.4558C151.841 60.8793 150.399 61.0511 148.956 61.3716C147.337 61.7207 145.688 62.4933 144.772 63.4091C144.423 63.7239 144.177 63.9013 144.177 64.1474C144.177 64.3935 144.355 64.7426 144.704 65.0288C145.579 65.9102 146.953 66.2937 148.252 66.2937C150.324 66.2937 151.869 65.521 153.695 64.0444C154.434 63.4091 154.994 63.4091 155.521 63.9757C156.191 64.6453 156.151 65.3092 155.521 66.1563C153.798 68.583 150.353 70.1283 147.125 70.1283C141.854 70.1283 137.149 66.1563 137.006 60.5016M142.523 61.1712C142.701 61.1712 142.947 61.0682 143.296 60.8221C144.664 59.8034 146.947 58.6415 148.704 58.115C149.758 57.8002 150.353 57.3423 150.353 56.6727C150.353 55.2647 148.384 53.6164 146.1 53.6164C143.817 53.6164 141.636 55.7569 141.636 58.6415C141.636 60.0495 141.951 61.1712 142.517 61.1712" fill="white"/>
<path id="Vector_6" d="M158.056 65.727C158.056 64.3248 158.303 62.2129 158.583 59.8949C158.863 57.68 159.144 55.8199 159.144 54.6981C159.144 53.748 158.898 53.6107 157.209 53.645C156.013 53.6794 155.767 53.2215 155.767 52.3801C155.767 51.7105 156.082 51.4644 156.608 51.1496C157.627 50.5544 158.222 50.1652 158.858 49.4956C159.419 48.9003 159.979 48.0876 160.649 46.8628C160.964 46.3019 161.319 46.1245 161.914 46.1245C162.687 46.1245 163.036 46.405 163.001 47.212L162.898 49.9191C162.864 50.6918 163.041 50.7604 164.266 50.7604H165.674C166.624 50.7604 166.905 51.184 166.905 52.4088C166.905 53.6336 166.447 53.9197 165.394 53.9197H164.06C163.076 53.9197 162.973 53.9884 162.973 55.2189C162.938 58.7674 162.87 62.1041 162.87 64.9487C162.87 66.1448 163.259 66.4596 165.153 66.9175C166.561 67.2666 167.157 67.3754 167.157 68.4285C167.157 69.3442 166.664 69.6933 165.646 69.6933C163.992 69.6933 162.378 69.7277 161.462 69.6933C159.075 69.5903 158.056 68.3941 158.056 65.7213" fill="white"/>
<path id="Vector_7" d="M170.282 75.3539C170.282 74.9304 170.596 74.6156 170.877 74.4038L175.553 70.6092C176.291 70.014 176.222 69.413 175.799 68.5374C173.761 64.1476 171.792 59.6833 169.898 55.2191C169.475 54.2347 169.194 53.8512 168.565 53.4964C167.861 53.1129 167.683 52.615 167.683 52.2315C167.683 51.5275 168.21 50.7549 169.263 50.7549H175.833C176.749 50.7549 177.413 51.2128 177.413 52.1228C177.413 52.7523 177.064 53.0728 175.902 53.5994C174.671 54.1946 175.095 54.9673 175.444 56.0261C176.325 58.5902 177.344 61.1199 178.746 64.1075C179.095 64.8458 179.239 64.8115 179.553 64.0731C180.784 61.1943 181.734 58.4871 182.398 56.2379C182.821 54.87 182.89 54.3778 181.66 53.6395C181.133 53.3247 180.675 52.8668 180.675 52.1628C180.675 51.2128 181.27 50.7549 182.152 50.7549H187.354C188.196 50.7549 188.797 51.2127 188.797 52.0541C188.797 52.5463 188.659 52.9698 187.921 53.462C187.286 53.9199 186.725 54.5838 186.198 56.1692C184.83 60.2442 183.279 64.1075 181.631 67.8334C180.509 70.3975 179.279 72.7898 177.693 75.1421C177.167 75.8804 176.606 76.1609 175.759 76.1609H171.157C170.596 76.1609 170.282 75.7374 170.282 75.3539Z" fill="white"/>
<path id="Vector_8" d="M59.9465 0.00572349C49.3526 4.60158 33.0925 17.0842 28.0731 50.7777C27.9415 51.2298 27.7182 51.4645 27.4092 51.4931C27.1001 51.4645 26.8769 51.2355 26.7453 50.7834C26.7453 50.7662 26.7453 50.7548 26.7396 50.7376C26.7281 50.6518 26.7109 50.5659 26.6995 50.4743H26.688C26.5163 49.57 26.3389 48.6944 26.15 47.8416C20.6499 27.0944 3.21653 20.5068 0 19.6254L11.2464 67.0148C11.5211 67.9134 11.9046 68.5831 12.3854 69.0295C12.8661 69.4759 13.5586 69.6991 14.4515 69.6991H40.4985C41.3284 69.6991 41.9809 69.4759 42.4616 69.0295C42.9424 68.5831 43.3259 67.9077 43.6006 67.0148L47.6413 50.4743H47.6241L59.9179 0.137361C59.9293 0.097297 59.9408 0.0515103 59.9522 0" fill="white"/>
<path id="Vector_9" d="M74.4322 39.8174C71.479 33.7735 68.8462 25.3773 67.2666 20.4953C66.9518 19.4766 66.6313 18.8813 65.8243 18.4578C64.9486 17.9999 64.5938 17.439 64.5938 16.9468C64.5938 15.9624 65.189 15.6133 66.4882 15.6133H73.339C74.747 15.6133 75.3766 15.9624 75.3766 16.9812C75.3766 17.5077 75.1991 17.8225 74.2891 18.143C72.8125 18.6696 72.5664 19.3735 72.8812 20.8158C73.7225 24.6447 76.2522 31.3926 77.872 34.8323C78.2211 35.605 78.6103 35.5706 78.9594 34.7637C80.7508 30.5856 82.5422 25.137 83.7727 20.9188C84.2649 19.3049 83.9845 18.6352 82.6109 18.3204C81.6265 18.0056 81.3117 17.5134 81.3117 17.0212C81.3117 16.1799 81.9813 15.6133 82.857 15.6133H88.8322C89.6735 15.6133 90.6236 15.8594 90.6236 16.8095C90.6236 17.8282 90.0284 17.9713 89.1813 18.6352C88.6204 19.0931 88.2656 19.7971 87.8478 21.1306C86.3025 26.3675 83.6697 34.3058 81.0656 39.8574C80.5734 40.9449 80.0125 41.3684 78.9937 41.3684H76.7101C75.5883 41.3684 74.9187 40.8075 74.4265 39.8231" fill="white"/>
<path id="Vector_10" d="M86.9379 31.9479C86.7261 25.801 91.963 21.7947 96.7076 21.7947C101.452 21.7947 105.384 25.2745 105.384 29.1721C105.384 30.58 104.612 31.5645 103.347 31.9136C101.767 32.3371 100.325 32.5088 98.8825 32.8293C97.2628 33.1784 95.6145 33.9511 94.6987 34.8668C94.3496 35.1816 94.1035 35.359 94.1035 35.6052C94.1035 35.8513 94.2809 36.2004 94.6301 36.4865C95.5057 37.3679 96.8793 37.7514 98.1785 37.7514C100.25 37.7514 101.796 36.9788 103.621 35.5021C104.36 34.8668 104.921 34.8668 105.447 35.4335C106.117 36.1031 106.077 36.767 105.447 37.6141C103.724 40.0408 100.279 41.5861 97.051 41.5861C91.7798 41.5861 87.0752 37.614 86.9321 31.9594M92.4495 32.629C92.6269 32.629 92.873 32.526 93.2221 32.2799C94.59 31.2611 96.8736 30.0993 98.6307 29.5727C99.6838 29.2579 100.279 28.8001 100.279 28.1304C100.279 26.7225 98.3102 25.0742 96.0266 25.0742C93.7429 25.0742 91.5623 27.2147 91.5623 30.0993C91.5623 31.5015 91.8771 32.629 92.4437 32.629" fill="white"/>
<path id="Vector_11" d="M109.425 47.1606C107.668 46.634 107.422 45.9987 108.229 43.8582C108.721 42.559 109.11 42.3472 110.444 42.8738C113.889 44.2417 115.326 44.8426 117.541 44.8426C119.578 44.8426 120.877 43.7552 120.843 41.8207L120.809 39.6802C120.809 38.9418 120.282 38.8388 119.824 39.331C118.559 40.6989 116.871 41.3685 114.942 41.3685C109.992 41.3685 106.861 37.9231 106.861 32.4802C106.861 26.3333 111.182 22.0808 117.403 22.0808C119.092 22.0808 120.603 22.3269 122.114 22.3269C123.132 22.3269 124.294 22.2239 125.382 22.2239H126.366C127.173 22.2239 127.7 22.6474 127.7 23.4201C127.7 23.9466 127.453 24.3358 126.715 24.6506C125.662 25.1085 125.416 25.7037 125.416 27.1116L125.382 36.807C125.382 37.9631 125.416 38.7759 125.485 39.6172C125.519 40.3212 125.553 41.0251 125.553 41.7234C125.553 46.8172 120.774 48.2251 116.911 48.2251C114.101 48.2251 111.222 47.6986 109.425 47.172M116.31 37.1561C119.298 37.1561 120.774 35.7883 120.734 33.0124L120.7 29.1492C120.666 26.5851 119.401 25.3202 116.837 25.3202C114.41 25.3202 111.709 27.6039 111.709 31.6445C111.709 35.0156 113.5 37.1619 116.31 37.1619" fill="white"/>
<path id="Vector_12" d="M127.31 31.9479C127.099 25.801 132.336 21.7947 137.08 21.7947C141.825 21.7947 145.757 25.2745 145.757 29.1721C145.757 30.58 144.984 31.5645 143.719 31.9136C142.14 32.3371 140.697 32.5088 139.255 32.8293C137.635 33.1784 135.987 33.9511 135.071 34.8668C134.722 35.1816 134.476 35.359 134.476 35.6052C134.476 35.8513 134.653 36.2004 135.003 36.4865C135.878 37.3679 137.252 37.7514 138.551 37.7514C140.623 37.7514 142.168 36.9788 143.994 35.5021C144.732 34.8668 145.293 34.8668 145.82 35.4335C146.489 36.1031 146.449 36.767 145.82 37.6141C144.097 40.0408 140.652 41.5861 137.424 41.5861C132.152 41.5861 127.448 37.614 127.305 31.9594M132.822 32.629C132.999 32.629 133.246 32.526 133.595 32.2799C134.963 31.2611 137.246 30.0993 139.003 29.5727C140.056 29.2579 140.652 28.8001 140.652 28.1304C140.652 26.7225 138.683 25.0742 136.399 25.0742C134.115 25.0742 131.935 27.2147 131.935 30.0993C131.935 31.5015 132.25 32.629 132.816 32.629" fill="white"/>
<path id="Vector_13" d="M148.355 37.179C148.355 35.7768 148.601 33.6649 148.882 31.3469C149.162 29.132 149.443 27.2719 149.443 26.1444C149.443 25.1943 149.197 25.057 147.508 25.0913C146.312 25.1256 146.066 24.6678 146.066 23.8264C146.066 23.1568 146.381 22.9107 146.907 22.5959C147.926 22.0007 148.521 21.6115 149.157 20.9419C149.717 20.3466 150.278 19.5339 150.948 18.3091C151.263 17.7482 151.618 17.5708 152.213 17.5708C152.985 17.5708 153.335 17.8512 153.3 18.6582L153.197 21.3654C153.163 22.138 153.335 22.2067 154.565 22.2067H155.973C156.923 22.2067 157.204 22.6303 157.204 23.8551C157.204 25.0799 156.746 25.366 155.693 25.366H154.359C153.375 25.366 153.272 25.4347 153.272 26.6652C153.237 30.2137 153.169 33.5504 153.169 36.3949C153.169 37.5911 153.558 37.9059 155.452 38.3638C156.86 38.7129 157.455 38.8216 157.455 39.8747C157.455 40.7905 156.963 41.1396 155.944 41.1396C154.296 41.1396 152.676 41.1739 151.766 41.1396C149.38 41.0366 148.361 39.8404 148.361 37.1676" fill="white"/>
<path id="Vector_14" d="M157.736 35.0041C157.736 31.2096 161.353 28.4337 165.359 28.4337C166.905 28.4337 168.278 28.8573 168.873 28.8573C169.223 28.8573 169.366 28.6798 169.366 28.3307C169.366 26.8197 168.278 25.1313 165.886 25.1313C164.129 25.1313 162.406 26.1158 160.723 27.2719C159.773 27.8328 159.212 27.5867 158.72 26.5679C157.879 24.7078 158.016 23.649 159.144 23.1224C160.655 22.3498 163.499 21.8232 165.68 21.8232C170.985 21.8232 173.618 23.9638 174.465 28.9202L175.381 34.3689C175.805 36.8986 176.365 37.7743 177.384 38.7243C177.808 39.0735 177.979 39.497 177.979 39.9892C177.979 40.7962 177.098 41.3227 175.661 41.3227C173.973 41.3227 172.851 40.8992 172.004 39.8805C171.409 39.2852 171.163 39.2452 170.459 39.7431C168.702 40.9736 166.63 41.5002 164.627 41.5002C160.586 41.5002 157.742 38.8274 157.742 34.9984M166.493 38.3008C169.234 38.3008 171.06 37.0703 170.711 35.3475L170.327 33.413C170.047 32.0452 169.555 31.3755 167.059 31.3755C163.934 31.3755 162.669 33.1669 162.669 34.7123C162.669 36.5037 164.112 38.2951 166.498 38.2951" fill="white"/>
<path id="Vector_15" d="M178.672 39.9549C178.672 39.4283 178.953 39.0391 179.725 38.69C180.641 38.2665 180.887 37.7056 180.847 36.2633V27.0945C180.881 25.6922 180.601 25.0913 179.548 24.6334C178.809 24.2843 178.598 23.8951 178.598 23.3686C178.598 22.5959 179.124 22.1724 179.931 22.2067H184.252C184.922 22.2067 185.305 22.5558 185.517 23.3285L185.66 23.7864C185.763 24.1355 186.084 24.1355 186.364 23.8207C187.663 22.4128 188.791 22.0293 189.844 22.0293C191.109 22.0293 192.059 22.6989 192.059 24.8051C192.059 26.9113 191.252 28.6684 190.302 28.6684C189.913 28.6684 189.529 28.388 189.14 27.7527C188.579 26.8713 188.224 26.5221 187.349 26.5221C186.227 26.5221 185.523 27.3978 185.523 28.7714V36.1145C185.489 37.5911 185.769 38.1863 186.931 38.6099C187.881 38.959 188.196 39.3825 188.196 39.9091C188.196 40.7161 187.526 41.1396 186.542 41.1396H180.04C179.233 41.1396 178.672 40.7161 178.672 39.9434" fill="white"/>
<path id="Vector_16" d="M193.993 22.2123H198.211C199.053 22.2123 199.585 22.7388 199.585 24.038V36.2288C199.551 37.6711 199.797 38.232 200.781 38.6498C201.623 39.039 201.909 39.4224 201.909 39.949C201.909 40.7216 201.314 41.1452 200.466 41.1452H194.108C193.301 41.1452 192.74 40.7216 192.74 39.949C192.74 39.4224 193.02 39.0333 193.793 38.6841C194.709 38.2606 194.955 37.6997 194.915 36.2574V27.0886C194.949 25.6864 194.669 25.0854 193.616 24.6275C192.877 24.2784 192.666 23.8892 192.666 23.3627C192.666 22.59 193.192 22.1665 193.999 22.2008M193.507 19.0759C193.507 17.3875 194.806 15.9509 196.597 15.9509C198.389 15.9509 199.722 17.3932 199.722 19.0759C199.722 19.9573 199.265 20.3751 198.458 20.3751H194.766C193.993 20.3751 193.501 19.9172 193.501 19.0759" fill="white"/>
<path id="Vector_17" d="M201.966 35.0041C201.966 31.2096 205.583 28.4337 209.589 28.4337C211.135 28.4337 212.503 28.8573 213.103 28.8573C213.453 28.8573 213.596 28.6798 213.596 28.3307C213.596 26.8197 212.508 25.1313 210.116 25.1313C208.359 25.1313 206.636 26.1158 204.953 27.2719C204.003 27.8328 203.442 27.5867 202.95 26.5679C202.109 24.7078 202.246 23.649 203.374 23.1224C204.885 22.3498 207.729 21.8232 209.91 21.8232C215.215 21.8232 217.854 23.9638 218.695 28.9202L219.605 34.3689C220.029 36.8986 220.59 37.7743 221.608 38.7243C222.032 39.0735 222.204 39.497 222.204 39.9892C222.204 40.7962 221.322 41.3227 219.886 41.3227C218.197 41.3227 217.075 40.8992 216.234 39.8805C215.633 39.2852 215.387 39.2452 214.689 39.7431C212.932 40.9736 210.86 41.5002 208.857 41.5002C204.816 41.5002 201.972 38.8274 201.972 34.9984M210.723 38.3008C213.464 38.3008 215.29 37.0703 214.935 35.3475L214.552 33.413C214.271 32.0452 213.779 31.3755 211.283 31.3755C208.153 31.3755 206.888 33.1669 206.888 34.7123C206.888 36.5037 208.33 38.2951 210.717 38.2951" fill="white"/>
<path id="Vector_18" d="M222.908 39.9549C222.908 39.4283 223.188 39.0391 223.961 38.69C224.877 38.2665 225.123 37.7056 225.083 36.2633V27.0945C225.117 25.6923 224.837 25.0913 223.784 24.6334C223.045 24.2843 222.833 23.8951 222.833 23.3686C222.833 22.5959 223.36 22.1724 224.167 22.2067H228.345C229.083 22.2067 229.398 22.7333 229.644 23.6834C229.782 24.1412 230.068 24.2442 230.451 23.7864C231.647 22.3841 233.405 21.6802 235.265 21.6802C238.395 21.6802 240.536 23.4029 241.097 26.9171L242.505 35.9142C242.716 37.2821 243.134 38.0204 243.735 38.4096C244.72 38.9705 245 39.394 245 40.098C245 40.8019 244.611 41.1511 243.77 41.1511H240.29C238.218 41.1511 238.006 39.7088 237.726 37.2534L236.816 29.1721C236.535 26.7454 235.305 25.6923 233.233 25.6923C231.161 25.6923 229.753 27.0945 229.753 28.8916V36.0229C229.719 37.5339 229.999 38.1291 231.127 38.587C232.037 38.9361 232.357 39.3596 232.357 39.8862C232.357 40.6932 231.688 41.1511 230.737 41.1511H224.276C223.469 41.1511 222.902 40.7275 222.902 39.9549" fill="white"/>
</g>
</svg>
